<?xml version="1.0" standalone="no"?>
<!DOCTYPE svg PUBLIC "-//W3C//DTD SVG 20010904//EN"
 "http://www.w3.org/TR/2001/REC-SVG-20010904/DTD/svg10.dtd">
<svg version="1.0" xmlns="http://www.w3.org/2000/svg"
 width="1408.000000pt" height="768.000000pt" viewBox="0 0 1408.000000 768.000000"
 preserveAspectRatio="xMidYMid meet">

<g transform="translate(0.000000,768.000000) scale(0.100000,-0.100000)"
fill="#000000" stroke="none">
<path d="M4519 5049 c-162 -94 -398 -231 -525 -305 -127 -73 -257 -148 -287
-167 l-56 -33 271 -159 c149 -87 277 -158 283 -158 6 0 142 76 301 169 159 94
416 244 572 334 155 90 282 166 282 169 -1 5 -277 167 -490 288 l-56 32 -295
-170z"/>
<path d="M7480 4584 l0 -397 -52 55 c-60 62 -154 118 -243 144 -80 24 -264 25
-355 1 -229 -60 -401 -223 -481 -455 -32 -94 -34 -102 -34 -257 0 -140 3 -169
23 -235 96 -306 325 -492 627 -507 191 -10 330 40 453 162 l72 73 0 -104 0
-104 139 0 c130 0 139 1 144 20 3 11 4 329 2 707 -1 379 -3 824 -4 991 l-1
302 -145 0 -145 0 0 -396z m-304 -460 c28 -7 79 -32 112 -54 286 -191 255
-681 -52 -830 -163 -79 -352 -51 -482 72 -65 62 -99 115 -126 201 -26 80 -28
228 -4 307 73 246 303 373 552 304z"/>
<path d="M11242 4959 c-108 -54 -139 -182 -69 -288 34 -52 87 -76 163 -76 49
0 69 6 101 27 73 48 106 133 84 215 -32 117 -168 177 -279 122z"/>
<path d="M1170 3915 l0 -956 148 3 147 3 3 705 3 705 20 -45 c25 -54 358 -799
506 -1133 l106 -238 120 3 120 3 149 335 c81 184 224 503 316 709 l167 374 3
-711 2 -712 150 0 150 0 0 955 0 955 -193 0 -194 0 -13 -27 c-19 -41 -319
-708 -498 -1106 -85 -191 -159 -344 -162 -340 -8 9 -60 121 -186 403 -148 331
-413 921 -449 998 l-34 72 -191 0 -190 0 0 -955z"/>
<path d="M5335 4809 c-44 -27 -164 -97 -267 -157 -103 -59 -188 -109 -188
-112 0 -3 121 -76 269 -163 l270 -158 271 158 c149 87 271 162 271 167 1 11
-518 316 -535 315 -6 0 -47 -23 -91 -50z"/>
<path d="M4675 4424 c-327 -190 -405 -238 -398 -244 12 -10 489 -289 516 -301
20 -9 44 2 183 82 315 183 366 214 365 224 0 9 -514 315 -529 315 -4 0 -65
-35 -137 -76z"/>
<path d="M3622 4169 l3 -310 262 -154 c145 -85 267 -156 273 -160 7 -4 10 99
10 307 l0 314 -269 157 c-148 86 -271 157 -275 157 -3 0 -5 -140 -4 -311z"/>
<path d="M5570 4234 c-228 -134 -486 -284 -572 -334 l-158 -92 0 -669 c0 -466
3 -669 11 -669 10 0 135 72 669 385 157 92 329 192 383 223 l97 56 0 673 c0
370 -3 673 -7 672 -5 0 -195 -111 -423 -245z"/>
<path d="M12200 4401 c-202 -29 -347 -120 -413 -259 -29 -61 -32 -75 -32 -167
0 -150 41 -231 156 -305 75 -48 154 -73 384 -119 267 -53 323 -85 332 -188 5
-63 -18 -109 -78 -149 -127 -85 -391 -64 -486 38 -25 26 -62 105 -63 131 0 9
-2 17 -5 17 -23 0 -281 -33 -284 -36 -8 -8 20 -110 44 -162 27 -59 104 -139
169 -177 113 -66 292 -101 466 -92 126 7 201 25 297 72 92 46 156 108 196 193
30 62 32 75 32 172 0 99 -2 110 -33 172 -34 70 -72 110 -146 153 -70 41 -143
63 -354 106 -211 43 -290 72 -327 122 -26 37 -25 103 3 149 46 74 186 118 314
98 123 -19 204 -75 229 -160 14 -46 3 -44 168 -28 l123 12 -6 45 c-15 111
-106 230 -223 294 -106 57 -319 88 -463 68z"/>
<path d="M8063 3883 c3 -426 6 -506 20 -553 81 -268 291 -413 577 -397 157 9
265 59 360 165 l50 56 0 -97 0 -97 140 0 140 0 -2 708 -3 707 -142 3 -142 3
-3 -448 c-4 -433 -5 -450 -26 -507 -48 -130 -136 -204 -270 -227 -129 -23
-269 27 -337 119 -70 96 -69 86 -73 600 l-3 462 -145 0 -145 0 4 -497z"/>
<path d="M9532 4372 c2 -5 29 -71 61 -148 33 -76 163 -391 291 -699 l232 -560
148 0 147 0 60 145 c33 80 91 219 129 310 37 91 112 271 165 400 186 448 225
545 225 552 0 5 -69 8 -154 8 l-154 0 -155 -392 c-86 -216 -179 -453 -208
-526 -29 -73 -56 -129 -59 -125 -4 5 -58 139 -120 298 -62 160 -153 392 -202
518 l-90 227 -160 0 c-88 0 -158 -4 -156 -8z"/>
<path d="M11188 3700 c-1 -374 -2 -692 -2 -707 l-1 -28 148 -3 147 -3 -2 708
-3 708 -142 3 -143 3 -2 -681z"/>
<path d="M4239 4018 c-2 -253 3 -514 9 -520 8 -7 524 -308 529 -308 2 0 3 139
3 309 l0 309 -265 156 c-146 86 -268 156 -270 156 -3 0 -5 -46 -6 -102z"/>
<path d="M3622 3458 l3 -322 200 -116 c110 -64 370 -216 578 -338 l377 -220 0
326 -1 327 -275 160 c-152 88 -342 199 -422 246 -334 195 -446 259 -454 259
-4 0 -7 -145 -6 -322z"/>
</g>
</svg>
